<svg width="38" height="38" viewBox="0 0 38 38" fill="none" xmlns="http://www.w3.org/2000/svg">
<path d="M17.6602 16.3192H18.9999V28.3769H20.3397M36.4166 18.9987C36.4166 23.6179 34.5816 28.0479 31.3154 31.3141C28.0491 34.5804 23.6191 36.4154 18.9999 36.4154C14.3807 36.4154 9.95073 34.5804 6.68448 31.3141C3.41822 28.0479 1.58325 23.6179 1.58325 18.9987C1.58325 14.3795 3.41822 9.94951 6.68448 6.68325C9.95073 3.417 14.3807 1.58203 18.9999 1.58203C23.6191 1.58203 28.0491 3.417 31.3154 6.68325C34.5816 9.94951 36.4166 14.3795 36.4166 18.9987Z" stroke="#353535" stroke-width="2" stroke-linecap="round" stroke-linejoin="round"/>
<path d="M20.3404 10.2929C20.3404 10.6482 20.1992 10.989 19.948 11.2402C19.6967 11.4915 19.356 11.6326 19.0006 11.6326C18.6453 11.6326 18.3045 11.4915 18.0533 11.2402C17.802 10.989 17.6609 10.6482 17.6609 10.2929C17.6609 9.93755 17.802 9.59678 18.0533 9.34553C18.3045 9.09428 18.6453 8.95312 19.0006 8.95312C19.356 8.95312 19.6967 9.09428 19.948 9.34553C20.1992 9.59678 20.3404 9.93755 20.3404 10.2929Z" fill="#353535" stroke="#353535" stroke-width="1.05556"/>
</svg>
